<?xml version="1.0" standalone="no"?>
<!DOCTYPE svg PUBLIC "-//W3C//DTD SVG 20010904//EN"
 "http://www.w3.org/TR/2001/REC-SVG-20010904/DTD/svg10.dtd">
<svg version="1.0" xmlns="http://www.w3.org/2000/svg"
 width="512.000000pt" height="512.000000pt" viewBox="0 0 512.000000 512.000000"
 preserveAspectRatio="xMidYMid meet">
<metadata>
Created by potrace 1.16, written by Peter Selinger 2001-2019
</metadata>
<g transform="translate(0.000000,512.000000) scale(0.100000,-0.100000)"
fill="#000000" stroke="none">
<path d="M2165 5039 c-241 -47 -422 -96 -510 -139 -23 -11 -45 -20 -50 -20 -4
0 -50 -20 -102 -45 -51 -25 -98 -45 -103 -45 -6 0 -10 -4 -10 -8 0 -5 -17 -16
-37 -26 -49 -23 -264 -157 -283 -176 -3 -3 -40 -31 -83 -63 -82 -61 -233 -207
-328 -317 -96 -111 -260 -353 -300 -442 -7 -16 -16 -28 -21 -28 -4 0 -8 -4 -8
-10 0 -5 -22 -56 -49 -112 -94 -199 -147 -368 -192 -613 l-30 -169 4 -306 c4
-294 5 -310 35 -450 46 -221 98 -379 183 -558 27 -56 49 -107 49 -112 0 -6 4
-10 8 -10 5 0 14 -12 21 -27 40 -90 204 -332 300 -443 96 -111 248 -257 328
-317 43 -31 80 -59 83 -62 25 -29 259 -168 395 -236 233 -115 394 -167 705
-224 99 -18 152 -21 390 -21 238 0 291 3 390 21 311 57 472 109 705 224 136
68 370 207 395 236 3 3 40 31 82 62 80 59 219 192 324 312 98 111 263 354 305
447 7 16 16 28 21 28 4 0 8 4 8 9 0 6 20 53 45 105 43 92 115 268 115 283 0 4
11 43 25 87 13 45 38 155 55 246 29 158 30 177 30 440 0 263 -1 282 -30 440
-17 91 -42 201 -55 246 -14 44 -25 83 -25 87 0 15 -74 196 -116 285 -24 51
-44 97 -44 102 0 6 -4 10 -8 10 -5 0 -14 12 -21 28 -40 89 -204 331 -300 442
-95 110 -246 256 -328 317 -43 32 -80 60 -83 63 -19 19 -234 153 -282 176 -21
10 -38 21 -38 26 0 4 -4 8 -10 8 -5 0 -52 20 -103 45 -52 25 -98 45 -102 45
-5 0 -27 9 -50 20 -91 44 -284 96 -515 139 -101 18 -150 21 -400 20 -238 -1
-301 -4 -385 -20z m730 -93 c288 -44 522 -120 773 -251 111 -58 252 -143 252
-151 0 -2 -12 -10 -27 -19 -23 -13 -24 -15 -5 -10 13 4 22 2 22 -4 0 -6 6 -11
14 -11 8 0 16 -7 20 -15 3 -8 13 -15 21 -15 15 0 15 -1 1 -16 -9 -8 -16 -22
-16 -30 0 -8 -7 -14 -15 -14 -28 0 -3 -28 41 -45 24 -9 42 -21 39 -25 -3 -5
-1 -11 5 -15 18 -11 11 -27 -10 -20 -11 3 -20 2 -20 -4 0 -5 9 -12 19 -16 13
-4 17 -12 13 -27 -3 -12 1 -25 10 -32 8 -6 17 -19 21 -30 6 -16 10 -16 24 -5
14 12 16 12 11 -1 -2 -8 -17 -16 -31 -18 -15 -2 -25 -8 -22 -13 4 -5 1 -9 -4
-9 -6 0 -11 -5 -11 -11 0 -5 4 -8 9 -4 6 3 9 -3 9 -12 0 -10 3 -27 7 -38 5
-14 4 -16 -3 -7 -7 11 -11 10 -16 -4 -4 -10 -3 -20 1 -23 4 -3 10 -17 12 -31
l3 -25 -19 23 -19 24 -2 -32 c-2 -25 1 -31 12 -27 10 4 13 1 9 -8 -3 -8 -9
-12 -14 -9 -5 3 -9 -4 -9 -15 0 -12 3 -21 8 -21 11 0 9 -64 -3 -72 -6 -5 -5
-11 5 -17 8 -6 14 -25 14 -44 0 -24 4 -33 12 -30 9 3 12 -6 12 -26 -1 -17 -5
-31 -11 -31 -5 0 -4 -6 2 -14 12 -14 5 -46 -12 -57 -12 -9 1 -31 14 -24 11 7
12 -15 1 -31 -4 -6 -14 -14 -22 -17 -12 -4 -11 -6 3 -6 22 -1 25 -61 3 -61 -8
0 -18 -5 -22 -12 -5 -8 -2 -9 10 -5 13 5 15 3 7 -12 -7 -12 -7 -21 1 -29 15
-15 1 -31 -22 -25 -22 6 -27 -11 -8 -23 7 -4 23 -9 36 -10 31 -4 41 -14 16
-15 -10 -1 -22 -1 -26 0 -5 0 -8 -3 -8 -9 0 -5 6 -10 14 -10 20 0 68 -51 62
-67 -3 -7 2 -19 10 -25 8 -7 25 -23 36 -35 12 -13 31 -23 42 -24 12 0 15 -3 9
-6 -7 -2 -13 -13 -13 -24 0 -10 -6 -19 -12 -20 -7 0 -4 -4 7 -9 11 -5 14 -9 7
-9 -9 -1 -6 -11 9 -33 17 -23 19 -30 7 -26 -12 5 -15 1 -12 -15 2 -12 2 -16
-2 -9 -3 6 -11 12 -17 12 -6 0 2 -13 18 -30 16 -16 23 -30 16 -30 -10 0 -11
-13 -6 -51 5 -37 4 -50 -4 -45 -6 4 -11 13 -11 21 0 7 -17 46 -37 87 -40 77
-109 153 -178 194 -100 58 -294 70 -524 31 -128 -22 -134 -22 -139 -5 -2 10
-14 19 -26 19 -79 6 -96 0 -96 -32 0 -15 -7 -19 -34 -19 -52 0 -58 16 -34 88
11 34 24 62 29 62 5 0 9 -5 9 -10 0 -17 47 -60 65 -60 22 0 19 18 -5 25 -28 9
-39 34 -50 113 -20 137 -22 175 -11 218 6 25 14 76 16 115 3 38 9 77 14 86 5
10 21 43 35 74 30 67 79 113 113 106 13 -2 23 0 23 4 0 22 -72 8 -112 -21 -40
-29 -67 -38 -68 -22 -1 4 -2 95 -3 202 -3 220 -8 243 -81 362 -75 123 -209
242 -333 293 -58 24 -190 45 -287 45 -261 -1 -487 -183 -576 -465 -18 -57 -22
-94 -22 -200 0 -71 5 -168 12 -214 15 -114 13 -118 -53 -81 -58 32 -107 39
-127 15 -10 -12 -6 -13 24 -8 45 7 116 -35 116 -68 0 -23 -2 -22 -75 28 -27
18 -49 16 -69 -6 -15 -16 -17 -30 -11 -73 4 -29 11 -58 16 -63 4 -6 9 -51 9
-100 2 -88 19 -167 60 -280 10 -27 26 -72 35 -98 19 -53 33 -58 16 -5 -27 87
-50 185 -49 208 1 14 -4 61 -12 105 -21 134 -20 196 3 228 l20 29 28 -32 c32
-35 34 -56 11 -142 -14 -54 -13 -73 2 -197 3 -27 51 -67 61 -51 3 5 -1 10 -9
10 -21 0 -21 16 0 24 19 7 36 -2 31 -17 -2 -7 2 -17 8 -23 14 -15 2 -139 -16
-160 -18 -22 -29 -16 -29 16 0 17 -4 30 -10 30 -10 0 -15 -16 -10 -35 1 -5 3
-19 4 -30 2 -34 39 -30 60 6 l19 32 53 -104 c30 -57 61 -118 70 -136 16 -29
16 -32 -3 -60 -12 -15 -22 -37 -24 -47 -4 -19 -41 -44 -168 -113 -204 -110
-376 -220 -563 -359 -53 -40 -107 -78 -120 -85 -13 -6 -32 -19 -43 -28 -11
-10 -36 -22 -55 -28 -33 -9 -35 -8 -36 14 -2 20 2 23 20 17 11 -3 23 -7 26 -8
3 0 15 9 28 21 22 23 22 23 1 23 -11 0 -17 -4 -14 -10 9 -14 -19 -12 -33 2 -9
9 -12 9 -12 0 0 -16 -27 -15 -33 1 -2 6 3 18 12 24 14 11 14 14 1 23 -13 8
-13 10 3 10 9 0 17 5 17 10 0 6 -4 10 -10 10 -5 0 -10 5 -10 12 0 9 3 9 12 0
7 -7 18 -12 26 -12 33 0 -11 29 -53 35 -35 6 -44 12 -47 30 -4 16 -1 22 9 18
15 -6 17 5 5 25 -5 7 -16 10 -25 6 -9 -3 -14 -11 -11 -16 4 -6 1 -9 -6 -6 -23
7 -23 28 -1 28 27 0 28 29 2 57 -19 20 -19 21 4 21 16 0 22 -5 18 -14 -3 -8
-1 -14 5 -14 29 0 13 74 -18 84 -8 3 -1 3 17 1 17 -2 34 -1 37 2 10 10 -6 32
-20 26 -16 -6 -19 13 -4 22 6 4 8 16 5 26 -4 11 0 31 10 45 14 22 14 25 0 30
-8 3 -15 15 -15 26 0 10 -4 16 -10 13 -5 -3 -10 1 -10 9 0 8 5 18 10 21 6 3
10 15 10 27 0 17 -5 20 -40 16 -32 -3 -39 -1 -35 11 5 11 3 12 -10 1 -21 -17
-29 -7 -16 18 6 12 11 24 11 28 0 11 -73 -4 -81 -18 -5 -7 -6 3 -4 25 4 32 2
37 -15 37 -11 0 -20 7 -20 15 0 8 9 15 21 15 11 0 18 -3 16 -7 -3 -5 6 -9 19
-9 15 -1 24 4 24 12 0 8 9 14 19 14 10 0 21 7 24 15 11 26 -12 27 -46 1 -26
-20 -36 -23 -45 -14 -13 13 -16 29 -4 27 4 -1 18 -1 31 0 l24 1 -23 25 c-29
31 -39 31 -69 0 -13 -14 -27 -25 -33 -25 -16 0 45 54 76 68 27 12 27 14 11 26
-13 10 -15 15 -6 21 9 5 7 11 -8 22 -12 8 -26 11 -32 7 -7 -4 -10 -1 -7 7 3 8
12 13 21 11 10 -2 15 2 12 10 -8 21 -12 88 -5 88 3 0 11 -5 18 -12 16 -16 15
-6 -2 26 -14 28 -11 66 6 66 13 0 -1 63 -16 72 -7 5 -3 8 9 8 15 0 17 2 6 9
-10 6 -10 10 -1 16 6 4 10 23 8 42 -1 21 3 37 11 42 7 5 11 13 7 19 -3 5 1 15
9 22 9 7 13 23 10 37 -2 14 -2 23 2 20 12 -13 53 43 53 73 0 19 5 30 14 30 20
0 31 21 16 30 -8 5 -2 14 19 29 17 12 31 27 31 33 0 6 -6 6 -15 -2 -19 -15
-28 -9 -19 13 6 17 28 18 52 4 18 -12 15 4 -5 18 -11 8 -14 18 -8 31 4 10 9
27 10 37 1 11 8 23 16 27 7 5 11 12 7 15 -3 4 0 18 8 33 13 25 12 27 -5 30
-13 2 -17 9 -14 22 3 11 9 17 14 14 5 -3 9 2 9 10 0 9 5 16 10 16 6 0 10 5 10
11 0 5 -5 7 -11 3 -8 -4 -9 1 -4 17 12 45 27 67 41 62 19 -7 29 24 14 42 -7 9
-9 19 -5 23 4 4 10 1 12 -5 6 -17 23 -16 23 1 0 7 -10 21 -23 29 l-22 16 23 0
c12 1 22 7 22 15 0 8 10 22 22 30 18 13 19 16 6 16 -40 0 -22 22 64 80 50 34
146 91 212 126 309 162 572 239 951 278 81 8 413 -4 510 -18z m-499 -259 c4
-4 13 -2 21 4 10 9 18 8 32 -5 13 -12 20 -13 23 -6 4 12 63 20 86 12 6 -2 12
-11 12 -20 0 -12 3 -13 12 -4 14 14 58 16 58 4 0 -5 6 -9 13 -10 38 -3 53 -8
63 -21 6 -8 16 -11 24 -6 7 4 16 2 22 -6 7 -10 11 -11 14 -2 11 26 72 -20 66
-50 -3 -12 3 -17 22 -17 14 0 26 -2 26 -4 0 -2 3 -11 6 -20 4 -11 1 -16 -10
-16 -9 0 -16 5 -16 10 0 6 -4 10 -10 10 -5 0 -7 -7 -4 -15 4 -8 13 -15 20 -15
8 0 17 -6 20 -14 3 -8 12 -12 20 -9 9 3 14 -2 14 -17 0 -13 16 -38 36 -58 24
-24 34 -41 31 -54 -4 -13 -1 -18 7 -15 19 8 10 -132 -10 -154 -19 -22 -12 -67
17 -104 11 -14 22 -39 24 -57 3 -17 9 -34 15 -38 15 -9 25 -70 12 -70 -6 0 -9
-7 -6 -15 8 -19 -15 -19 -39 0 -21 15 -72 10 -122 -11 l-30 -13 30 -1 c19 0
40 -11 62 -32 26 -25 33 -28 33 -14 0 9 -5 26 -10 37 -8 13 -7 19 0 19 6 0 13
-7 16 -15 4 -8 12 -15 19 -15 17 0 52 -45 71 -88 18 -43 8 -142 -20 -202 -11
-25 -46 -71 -77 -102 -31 -32 -53 -58 -48 -58 5 0 9 -5 9 -11 0 -5 -5 -7 -11
-4 -7 5 -9 -4 -7 -26 4 -43 28 -51 28 -9 0 28 3 31 23 25 17 -5 19 -4 7 4 -17
12 -15 13 20 15 14 1 38 10 53 20 15 10 31 16 34 12 4 -4 1 -37 -6 -74 -6 -37
-16 -105 -22 -152 -15 -137 -93 -276 -143 -257 -10 4 -18 -5 -26 -28 -25 -76
-105 -120 -243 -135 -215 -23 -325 -3 -406 72 -23 22 -41 32 -43 26 -7 -20
-66 10 -91 46 -56 78 -157 288 -157 326 0 9 -7 31 -16 49 -17 34 -12 101 7
101 5 0 24 -10 41 -22 22 -16 32 -19 35 -11 4 10 13 9 40 -2 44 -18 41 -19 45
2 3 17 -5 27 -84 93 -21 18 -38 40 -38 49 0 9 -4 21 -10 27 -11 11 -17 91 -7
101 4 3 3 11 -2 17 -14 19 -1 86 18 86 12 0 13 2 3 9 -9 5 -11 17 -6 37 5 16
7 37 5 47 -1 9 3 17 9 17 7 0 10 -7 7 -15 -4 -8 -2 -17 3 -20 6 -4 8 -19 5
-36 -5 -28 -4 -29 33 -29 26 0 45 -7 57 -20 23 -26 38 -26 30 0 -3 10 -1 29 6
41 11 21 12 22 25 5 18 -25 91 -27 109 -3 14 19 25 22 25 7 0 -19 24 -37 42
-32 35 9 19 -36 -31 -87 -38 -39 -58 -52 -91 -57 -52 -9 -31 -23 23 -17 48 7
117 73 153 149 9 19 19 32 23 29 3 -4 6 -51 7 -106 0 -54 -2 -97 -5 -94 -2 3
-15 -20 -28 -51 -22 -52 -85 -152 -102 -164 -18 -12 -110 -219 -116 -260 -4
-25 -9 -53 -12 -64 -3 -10 -1 -16 4 -13 5 3 15 32 22 64 8 32 20 72 28 88 30
59 126 195 138 195 7 0 15 14 19 30 7 36 34 50 51 27 7 -10 14 -17 17 -17 2 0
4 37 3 81 -1 45 2 98 7 118 4 20 12 81 17 136 8 93 7 102 -14 135 -11 19 -27
49 -34 67 -11 27 -16 30 -30 21 -13 -8 -35 -8 -81 0 -35 7 -65 10 -67 9 -1 -2
31 -16 72 -32 41 -15 72 -32 69 -37 -3 -4 -9 -8 -14 -8 -4 0 -30 -9 -57 -21
-46 -20 -47 -22 -24 -30 13 -5 21 -12 18 -15 -3 -3 -14 -1 -25 5 -29 15 -86
14 -130 -4 l-37 -15 28 25 c15 14 35 25 43 25 9 0 14 6 11 13 -4 13 -45 11
-63 -4 -6 -5 -32 -20 -58 -34 l-47 -25 3 27 c2 19 -2 27 -10 25 -19 -4 10 48
43 76 31 27 23 45 -18 45 -17 0 -24 4 -20 13 6 17 48 44 68 44 8 0 15 5 15 10
0 6 -11 10 -25 10 -28 0 -30 7 -10 33 7 11 11 26 8 34 -3 8 0 19 7 23 10 6 9
14 -7 34 -11 14 -24 22 -28 18 -4 -4 -3 2 3 13 8 16 7 24 -8 40 -22 25 -35 65
-21 65 6 0 11 -5 11 -12 0 -6 3 -8 7 -5 3 4 -1 15 -9 24 -9 10 -15 31 -13 46
2 15 0 41 -5 57 -6 21 -5 30 3 30 8 0 8 3 -1 9 -10 6 -10 10 3 21 8 7 15 21
15 32 0 25 62 81 108 98 20 7 60 23 87 36 65 30 142 40 161 21z m901 -1503
c10 -10 25 -13 39 -10 14 4 24 2 24 -4 0 -5 11 -10 25 -10 16 0 25 -6 25 -15
0 -20 17 -19 28 2 6 10 24 18 48 19 22 1 68 6 104 10 36 5 108 7 160 6 79 -2
103 -6 147 -28 29 -14 52 -29 50 -33 -1 -4 14 -21 33 -37 19 -16 39 -34 43
-42 5 -7 13 -9 19 -6 6 4 9 1 6 -7 -3 -8 0 -25 7 -39 7 -14 18 -36 24 -50 7
-14 19 -37 27 -52 26 -49 70 -284 73 -398 1 -30 4 -83 7 -117 4 -61 4 -63 -19
-63 -13 0 -29 6 -36 13 -11 10 -13 9 -9 -3 3 -8 18 -19 35 -23 27 -8 31 -15
37 -54 3 -25 6 -70 6 -100 0 -30 7 -109 15 -176 28 -240 32 -338 20 -547 -3
-52 -7 -141 -9 -196 -2 -56 -6 -107 -10 -113 -4 -5 -9 -34 -12 -62 -4 -48 1
-90 26 -187 8 -32 6 -34 -85 -114 -51 -44 -133 -109 -182 -144 -122 -87 -341
-214 -370 -214 -3 0 -3 35 -1 77 4 57 16 104 43 173 42 107 71 214 85 310 16
112 34 1350 20 1350 -12 0 -21 -211 -21 -507 0 -158 -2 -308 -3 -333 -2 -25
-9 -148 -16 -275 -16 -305 -49 -446 -102 -432 -28 8 -48 -2 -58 -28 -7 -19
-55 -40 -81 -37 -3 1 -21 -13 -39 -29 -20 -19 -40 -29 -51 -26 -11 3 -22 1
-25 -4 -3 -6 -15 -7 -27 -3 -11 3 -41 6 -66 5 -55 -1 -174 36 -165 51 4 7 2 8
-4 4 -6 -4 -30 3 -53 15 -49 25 -156 96 -165 110 -10 17 -116 80 -123 74 -3
-4 19 -29 49 -57 153 -139 412 -258 560 -258 57 0 130 -16 130 -28 -1 -12 -27
-42 -37 -42 -6 0 -16 -7 -23 -15 -7 -8 -23 -15 -36 -15 -13 0 -24 -4 -24 -8 0
-5 -24 -5 -52 -1 -72 10 -108 20 -108 29 0 5 -8 8 -17 8 -10 -1 -28 2 -40 6
-47 15 -21 -6 41 -34 72 -32 237 -70 303 -70 31 0 45 -5 52 -18 9 -17 -1 -23
-92 -60 -305 -121 -548 -166 -887 -166 -211 0 -343 12 -497 47 l-54 13 40 18
c65 28 45 59 -24 36 -33 -11 -38 -10 -55 10 -11 13 -18 26 -15 30 3 4 37 27
77 51 104 63 108 65 163 93 228 117 415 280 415 361 0 37 -12 31 -40 -21 -34
-65 -103 -139 -153 -164 -23 -11 -71 -39 -107 -60 -36 -22 -76 -45 -90 -51
-14 -6 -41 -20 -60 -31 -19 -10 -55 -28 -80 -40 -25 -11 -57 -27 -72 -34 -14
-8 -32 -14 -40 -14 -7 0 -35 -12 -63 -25 -58 -29 -77 -31 -69 -10 4 8 3 31 0
50 -7 35 -28 54 -70 61 -11 2 -34 6 -50 10 -22 5 -28 4 -24 -7 2 -7 15 -16 29
-19 29 -7 13 -19 -21 -15 -14 2 -31 4 -39 4 -11 1 -10 5 5 15 29 22 9 31 -30
12 -39 -18 -86 -18 -86 1 0 16 1 16 -39 2 -28 -10 -35 -9 -50 8 -10 10 -15 25
-13 32 3 8 0 11 -5 8 -19 -12 -44 87 -44 178 -1 125 8 182 36 241 32 65 33 89
5 74 -18 -10 -20 -8 -20 27 0 21 -3 56 -7 78 -6 36 -8 31 -24 -65 -10 -58 -18
-136 -18 -175 -1 -38 -5 -117 -11 -175 -5 -58 -10 -133 -12 -167 -3 -72 8 -74
-143 27 -136 92 -273 209 -389 331 l-96 102 0 61 c-1 139 32 535 51 621 21 92
91 254 126 290 10 11 24 34 31 51 7 16 24 42 38 57 14 15 48 55 76 88 55 67
221 209 272 233 18 8 41 25 52 37 10 11 40 32 66 45 26 13 56 34 68 46 11 12
20 17 20 10 0 -11 86 40 105 63 15 19 184 135 196 135 10 0 24 10 60 43 10 9
28 17 39 17 13 0 20 7 20 20 0 12 12 26 30 35 l30 16 1 -41 c0 -22 1 -55 2
-73 0 -19 -2 -38 -5 -43 -5 -8 -3 -159 2 -159 1 0 3 -20 5 -45 2 -25 6 -70 9
-100 14 -117 17 -147 21 -220 5 -69 10 -125 18 -175 2 -11 6 -26 11 -33 4 -7
9 -33 12 -58 2 -25 9 -54 14 -64 6 -10 7 -25 4 -33 -3 -8 -1 -18 5 -22 6 -3
11 -19 11 -35 0 -16 5 -32 10 -35 6 -3 10 -17 10 -30 0 -13 5 -27 10 -30 6 -3
7 -17 4 -30 -4 -16 0 -26 13 -33 10 -6 15 -14 11 -17 -4 -4 2 -27 13 -52 10
-24 19 -53 19 -64 0 -10 4 -19 8 -19 5 0 15 -23 22 -50 8 -28 20 -56 27 -62 7
-6 13 -21 13 -35 0 -13 7 -26 15 -29 8 -4 15 -13 15 -22 0 -8 6 -23 13 -31 8
-9 20 -32 28 -51 20 -51 61 -110 76 -110 7 0 13 -7 13 -15 0 -9 8 -18 18 -22
9 -3 35 -20 57 -37 53 -42 83 -54 125 -51 18 2 44 -4 57 -12 20 -13 23 -13 21
-2 -2 9 8 15 27 17 16 2 39 15 52 28 12 13 27 24 33 24 5 0 10 9 10 20 0 11 7
20 15 20 8 0 17 11 21 25 3 14 15 30 25 36 11 5 19 16 19 24 0 8 4 15 8 15 11
0 42 72 42 98 0 11 5 24 11 27 6 4 8 14 5 22 -4 9 -1 22 5 29 6 7 13 35 16 61
2 26 9 66 14 88 6 22 10 50 10 62 0 12 4 25 9 28 5 3 7 12 3 20 -3 8 -2 23 3
33 4 9 9 33 10 52 1 19 5 55 9 80 4 25 8 70 9 100 1 30 5 61 9 68 5 7 6 21 2
31 -3 10 1 37 8 59 8 22 11 46 6 53 -4 8 -3 19 2 26 6 6 8 21 4 33 -4 12 -3
26 3 33 5 7 9 29 9 51 1 49 20 62 51 33 26 -25 91 -28 118 -7 14 12 14 14 -1
22 -8 5 -13 13 -10 19 4 5 -10 9 -29 9 -30 0 -36 4 -36 21 0 19 -2 20 -17 8
-12 -10 -15 -11 -9 -1 6 10 1 11 -18 6 -34 -8 -43 18 -38 116 2 41 5 140 7
220 8 289 18 418 37 472 12 34 17 38 65 48 39 8 50 15 46 26 -7 19 5 18 24 -2z
m-221 -163 c2 -22 -1 -43 -7 -46 -7 -5 -6 -11 1 -20 7 -8 9 -19 5 -26 -9 -14
-13 -95 -29 -534 -1 -38 2 -80 8 -92 6 -16 5 -31 -4 -50 -13 -28 -15 -42 -26
-163 -3 -36 -7 -83 -10 -105 -2 -22 -6 -65 -9 -95 -2 -30 -9 -74 -15 -98 -6
-24 -8 -48 -4 -53 3 -5 0 -16 -6 -24 -6 -8 -9 -18 -6 -23 3 -5 -8 -83 -24
-173 -17 -90 -31 -171 -31 -179 -3 -40 -58 -180 -71 -180 -4 0 -8 -8 -8 -18 0
-9 -9 -23 -20 -30 -11 -7 -20 -19 -20 -27 0 -8 -20 -26 -45 -41 -40 -23 -54
-26 -111 -22 -55 3 -69 8 -92 31 -15 16 -46 42 -70 59 -31 22 -51 48 -69 87
-14 31 -29 58 -32 61 -4 3 -15 23 -25 45 -10 22 -24 47 -31 55 -7 8 -16 31
-20 50 -4 19 -18 55 -31 79 -13 24 -24 51 -24 61 0 9 -3 20 -7 24 -5 4 -8 11
-8 14 -1 4 -6 17 -13 28 -6 12 -14 41 -18 65 -4 24 -10 49 -15 54 -4 6 -13 42
-20 80 -6 39 -15 75 -20 81 -5 6 -7 19 -3 28 3 9 1 22 -5 29 -6 7 -13 38 -16
68 -9 99 -17 164 -22 172 -2 4 -5 56 -7 115 -1 59 -5 112 -9 119 -8 13 -18 88
-22 180 -3 54 -1 61 13 56 13 -4 14 -3 3 5 -14 10 -17 96 -5 157 3 17 5 42 5
57 0 38 24 56 39 28 16 -30 72 -79 90 -80 8 0 41 -30 74 -66 32 -36 71 -71 85
-77 14 -6 41 -24 59 -41 32 -30 32 -30 32 -6 0 13 -10 34 -21 46 -28 30 -19
51 26 56 49 6 63 -13 37 -49 -18 -25 -19 -32 -8 -58 7 -17 20 -36 29 -44 15
-11 18 -10 26 11 14 37 31 45 90 44 33 -1 55 3 58 11 3 6 11 9 19 6 7 -3 41
18 76 46 74 60 72 58 133 149 26 40 52 72 56 72 5 0 9 7 9 15 0 8 7 15 16 15
10 0 13 6 9 19 -3 10 1 24 10 31 8 7 15 18 15 24 0 14 22 38 28 31 3 -2 6 -22
8 -44z"/>
<path d="M3275 3942 c-27 -23 -68 -82 -62 -88 3 -3 13 6 22 20 31 46 51 34 70
-43 17 -71 15 -149 -7 -221 -8 -25 -8 -35 1 -38 6 -2 11 -20 11 -40 0 -46 7
-39 15 18 4 24 9 49 13 54 3 6 7 88 8 183 l2 173 -27 0 c-14 -1 -35 -8 -46
-18z"/>
<path d="M3190 3820 c-19 -35 -17 -108 4 -123 19 -14 19 -28 -2 -110 -14 -52
2 -55 34 -8 41 62 48 113 24 166 -11 24 -24 46 -29 49 -5 3 -7 15 -4 26 7 26
-13 26 -27 0z"/>
<path d="M2576 4275 c1 -126 0 -245 -4 -264 -4 -19 -19 -43 -34 -54 -25 -19
-29 -19 -51 -4 -33 21 -49 88 -53 212 -2 55 -8 120 -13 145 -8 34 -9 5 -6
-120 3 -91 7 -180 11 -197 16 -82 95 -109 150 -52 33 34 31 3 20 327 -10 276
-24 281 -20 7z"/>
<path d="M2645 3989 c-19 -67 -39 -109 -52 -109 -8 0 -23 -5 -35 -11 -20 -11
-20 -11 2 -34 18 -19 21 -31 16 -57 -6 -36 8 -146 22 -160 4 -4 9 26 11 69 2
88 4 93 31 86 14 -4 22 1 29 20 6 14 20 29 33 32 31 10 78 44 78 57 0 6 -11 8
-26 4 -20 -5 -37 0 -66 19 l-40 27 23 12 c15 8 33 10 47 4 30 -11 42 -10 42 2
0 5 -19 15 -42 22 -24 7 -48 19 -54 27 -10 12 -13 11 -19 -10z"/>
<path d="M2806 3868 c3 -4 -1 -8 -8 -8 -7 0 -35 -14 -61 -31 -41 -25 -47 -32
-36 -45 7 -8 24 -14 38 -12 21 2 25 8 23 26 -4 27 14 30 21 3 9 -36 107 -30
107 6 0 8 6 13 13 10 6 -2 11 -10 9 -17 -2 -8 3 -10 13 -6 9 3 23 6 31 6 30 0
11 18 -50 48 -58 28 -112 39 -100 20z"/>
<path d="M2770 3145 c7 -8 9 -15 4 -15 -5 -1 -45 -2 -89 -4 -104 -4 -275 -22
-299 -32 -13 -5 -23 -2 -32 10 -11 16 -15 13 -44 -29 -18 -26 -29 -49 -25 -53
4 -4 13 1 20 11 19 26 75 40 94 23 25 -21 90 -39 122 -32 18 3 28 2 24 -4 -5
-9 -54 -18 -125 -24 -45 -4 -113 -34 -105 -46 6 -10 66 -7 110 3 168 42 223
46 294 21 24 -8 46 -13 48 -10 3 3 1 17 -4 33 -12 35 -55 53 -83 35 -23 -14
-30 -15 -30 -3 0 5 10 12 23 17 33 11 -67 17 -118 6 -41 -8 -125 5 -125 19 0
12 65 22 89 14 11 -3 40 1 64 9 67 22 200 11 238 -21 16 -14 29 -22 29 -18 0
13 -24 51 -49 77 -27 29 -53 39 -31 13z"/>
<path d="M2536 2348 c-9 -35 -7 -89 5 -131 12 -43 7 -56 -14 -39 -8 7 -16 9
-19 7 -7 -8 -58 16 -58 27 0 4 5 8 12 8 9 0 9 3 0 12 -19 19 -14 26 16 21 24
-3 25 -2 6 6 -30 13 -36 25 -24 55 5 14 7 26 4 26 -8 0 -43 -43 -44 -53 0 -5
-8 -16 -17 -25 -16 -16 -16 -17 0 -20 9 -2 17 -7 17 -12 0 -14 42 -51 70 -62
25 -10 108 -13 117 -4 2 2 -3 28 -11 57 -9 29 -16 74 -16 101 0 40 -3 48 -19
48 -11 0 -21 -9 -25 -22z"/>
</g>
</svg>
